<svg xmlns="http://www.w3.org/2000/svg" width="400" height="260" viewBox="0 0 400 260" role="img" aria-labelledby="title desc">
  <title id="title">A pump and its water</title>
  <desc id="desc">A hand-operated pump with a curved lever releases water above a small, open ripple. Original publication ornament for Surviving the Singularity.</desc>
  <g fill="none" stroke="#202c28" stroke-width="4.2" stroke-linecap="round" stroke-linejoin="round">
<path d="M162 220H267M176 217L181 194H243L250 217" stroke="#202c28" stroke-width="4.2"/>
<path d="M190 192V113M231 192V112M186 112H235V97H186Z" stroke="#202c28" stroke-width="4.2"/>
<path d="M196 96V72H216V94M198 72L280 45C289 42 294 49 292 55L213 86" stroke="#202c28" stroke-width="4.2"/>
<circle cx="209" cy="83" r="5" stroke="#202c28" fill="none"/>
<path d="M190 126H167C145 126 132 135 132 151V157H149V150C149 145 155 143 164 143H190" stroke="#202c28" stroke-width="4.2"/>
<path d="M185 193H237M194 182H227" stroke="#202c28" stroke-width="4.2"/>
<path d="M137 173C130 183 130 188 138 188C146 187 144 181 137 173Z" stroke="#66764e" stroke-width="4.2"/>
<path d="M133 207C106 207 94 213 110 218M148 210C168 215 155 226 125 226M112 205C77 212 87 231 137 232" stroke="#66764e" stroke-width="4.2"/>
<path d="M272 218C280 198 289 184 304 171" stroke="#66764e" stroke-width="4.2"/>
<path d="M284 196C273 192 268 183 270 174C283 179 286 189 284 196Z" stroke="#66764e" stroke-width="4.2"/>
<path d="M292 186C307 188 319 180 321 167C307 169 297 176 292 186Z" stroke="#66764e" stroke-width="4.2"/>
  </g>
</svg>
